{"title":"Bordertown 2006 DVD9rip English Klam","uid":9950355,"size":1983135922,"categoryP":"video","categoryS":"movies","magnet":"?xt=urn:btih:cc955bf8301aa94f9e3c59de293a00d70bf48d22&amp;dn=Bordertown+2006+DVD9rip+English+Klam&amp;tr=udp%3A%2F%2Ftracker.openbittorrent.com%3A80&amp;tr=udp%3A%2F%2Fopen.demonii.com%3A1337&amp;tr=udp%3A%2F%2Ftracker.coppersurfer.tk%3A6969&amp;tr=udp%3A%2F%2Fexodus.desync.com%3A6969","seeders":0,"leechers":1,"uploader":"Klambake","files":-1,"time":1397390353,"description":"With: Jennifer Lopez, Antonio Banderas and Kate del Castillo\n\nLauren is een Amerikaanse journalist voor de krant Chicago Sentinel. Ze gaat naar Juarez, een stad dicht bij grens van Mexico, om onderzoek te doen naar een aantal moorden op jonge vrouwelijke arbeiders. Wanneer ze ontdekt dat er honderden slachtoffers zijn, wint ze het vertrouwen van de lokale fabrieksarbeiders, maar komt toch in gevaar.\n\nA journalist investigates a series of murders near American-owned factories on the border of Juarez and El Paso.\n &lt;a href=&quot;\nhttp://www.imdb.com/title/tt0445935&quot; rel=&quot;nofollow&quot; target=&quot;_NEW&quot;&gt;\nhttp://www.imdb.com/title/tt0445935&lt;/a&gt;\t\n\n--------------------- Dutch Friends 4ever ---------------------\n---------------------------------------------------------------\n- Bezoek ook eens mijn vrienden op: &lt;a href=&quot; http://www.Film-Test.nl&quot; rel=&quot;nofollow&quot; target=&quot;_NEW&quot;&gt; http://www.Film-Test.nl&lt;/a&gt; --\n----- voor mijn Nederlandse Sync. ondertitels ---- en meer ----\n------- http://www.Film-Test.nl ---- Over Films en meer -------\n\n\nGeneral:\n\nComplete name                            : BordertownBordertown.avi\nFormat                                   : AVI\nFormat/Info                              : Audio Video Interleave\nFile size                                : 1.84 GiB\nDuration                                 : 1h 52mn\nOverall bit rate                         : 2 356 Kbps\n\nVideo:\n\nFormat                                   : MPEG-4 Visual\nFormat profile                           : Simple@L3\nFormat settings, BVOP                    : No\nFormat settings, QPel                    : No\nFormat settings, GMC                     : No warppoints\nFormat settings, Matrix                  : Default (H.263)\nCodec ID                                 : XVID\nCodec ID/Hint                            : XviD\nDuration                                 : 1h 52mn\nSource duration                          : 1h 52mn\nBit rate                                 : 1 897 Kbps\nWidth                                    : 704 pixels\nHeight                                   : 396 pixels\nDisplay aspect ratio                     : 16:9\nFrame rate                               : 25.000 fps\nColor space                              : YUV\nChroma subsampling                       : 4:2:0\nBit depth                                : 8 bits\nScan type                                : Progressive\nCompression mode                         : Lossy\nBits/(Pixel*Frame)                       : 0.272\nStream size                              : 1.48 GiB (81%)\nWriting library                          : XviD 1.1.2 (UTC 2006-11-01)\n\nAudio:\n\nFormat                                   : AC-3\nFormat/Info                              : Audio Coding 3\nMode extension                           : CM (complete main)\nFormat settings, Endianness              : Big\nCodec ID                                 : 2000\nDuration                                 : 1h 52mn\nBit rate mode                            : Constant\nBit rate                                 : 448 Kbps\nChannel(s)                               : 6 channels\nChannel positions                        : Front: L C R, Side: L R, LFE\nSampling rate                            : 48.0 KHz\nBit depth                                : 16 bits\nCompression mode                         : Lossy\nStream size                              : 359 MiB (19%)\nAlignment                                : Aligned on interleaves\nInterleave, duration                     : 32 ms (0.80 video frame)\nInterleave, preload duration             : 544 ms\n\n","torrent":{"xt":"urn:btih:cc955bf8301aa94f9e3c59de293a00d70bf48d22","amp;dn":"Bordertown+2006+DVD9rip+English+Klam","amp;tr":["udp%3A%2F%2Ftracker.openbittorrent.com%3A80","udp%3A%2F%2Fopen.demonii.com%3A1337","udp%3A%2F%2Ftracker.coppersurfer.tk%3A6969","udp%3A%2F%2Fexodus.desync.com%3A6969"],"infoHash":"cc955bf8301aa94f9e3c59de293a00d70bf48d22","infoHashBuffer":{"type":"Buffer","data":[204,149,91,248,48,26,169,79,158,60,89,222,41,58,0,215,11,244,141,34]},"announce":[],"urlList":[]}}